# xmcd
#
# Track frame offsets: 
#        150
#        17175
#        27750
#        44812
#        55424
#
# Disc length: 975 seconds
#
# Revision: 0
# Processed by: cddbd v1.5.2PL0 Copyright (c) Steve Scherf et al.
# Submitted via: ExactAudioCopy v1.2
#
DISCID=4003cd05
DTITLE=Blueswater Porch Band - Around Here Stripped
DYEAR=2016
DGENRE=Bluesrock
TTITLE0=Alabama Train
TTITLE1=Whisky
TTITLE2=Around Here
TTITLE3=Better Apart (The Tea Ditty)
TTITLE4=Red Brick Road
EXTD=
EXTT0=
EXTT1=
EXTT2=
EXTT3=
EXTT4=
PLAYORDER=
